<?xml version="1.0" encoding="UTF-8"?>
<svg width="700pt" height="700pt" fill="white" version="1.1" viewBox="0 0 700 700" xmlns="http://www.w3.org/2000/svg" xmlns:xlink="http://www.w3.org/1999/xlink">
 <defs>
  <symbol id="m" overflow="visible">
   <path d="m37.219-2.2188c-1.918 0.99219-3.918 1.7344-6 2.2344-2.0742 0.50781-4.2422 0.76562-6.5 0.76562-6.75 0-12.102-1.8828-16.047-5.6562-3.9375-3.7695-5.9062-8.8828-5.9062-15.344 0-6.4688 1.9688-11.586 5.9062-15.359 3.9453-3.7695 9.2969-5.6562 16.047-5.6562 2.2578 0 4.4258 0.25781 6.5 0.76562 2.082 0.5 4.082 1.25 6 2.25v8.375c-1.9375-1.3203-3.8516-2.2891-5.7344-2.9062-1.875-0.61328-3.8516-0.92188-5.9219-0.92188-3.7305 0-6.6641 1.1992-8.7969 3.5938-2.1367 2.3867-3.2031 5.6719-3.2031 9.8594s1.0664 7.4766 3.2031 9.8594c2.1328 2.3867 5.0664 3.5781 8.7969 3.5781 2.0703 0 4.0469-0.30469 5.9219-0.92188 1.8828-0.61328 3.7969-1.582 5.7344-2.9062z"/>
  </symbol>
  <symbol id="d" overflow="visible">
   <path d="m27.234-22.109c-0.84375-0.39453-1.6875-0.6875-2.5312-0.875-0.84375-0.19531-1.6875-0.29688-2.5312-0.29688-2.5 0-4.4297 0.80469-5.7812 2.4062-1.3438 1.6055-2.0156 3.8984-2.0156 6.875v14h-9.7031v-30.391h9.7031v5c1.25-1.9883 2.6797-3.4414 4.2969-4.3594 1.625-0.91406 3.5664-1.375 5.8281-1.375 0.32031 0 0.67188 0.015625 1.0469 0.046875 0.38281 0.03125 0.94141 0.089844 1.6719 0.17188z"/>
  </symbol>
  <symbol id="c" overflow="visible">
   <path d="m35-15.281v2.7812h-22.703c0.22656 2.2734 1.0469 3.9805 2.4531 5.125 1.4141 1.1367 3.3906 1.7031 5.9219 1.7031 2.0391 0 4.1328-0.30078 6.2812-0.90625 2.1445-0.60156 4.3477-1.5195 6.6094-2.75v7.4844c-2.3047 0.86719-4.6055 1.5156-6.9062 1.9531-2.293 0.44531-4.5859 0.67188-6.875 0.67188-5.5 0-9.7773-1.3945-12.828-4.1875-3.043-2.7891-4.5625-6.7109-4.5625-11.766 0-4.9453 1.4922-8.8438 4.4844-11.688 3-2.8438 7.1172-4.2656 12.359-4.2656 4.7695 0 8.5859 1.4453 11.453 4.3281 2.875 2.875 4.3125 6.7148 4.3125 11.516zm-9.9844-3.2188c0-1.8438-0.54297-3.3281-1.625-4.4531-1.0742-1.1328-2.4766-1.7031-4.2031-1.7031-1.8867 0-3.418 0.53125-4.5938 1.5938-1.1797 1.0547-1.9062 2.5742-2.1875 4.5625z"/>
  </symbol>
  <symbol id="b" overflow="visible">
   <path d="m18.281-13.672c-2.0234 0-3.543 0.34375-4.5625 1.0312-1.0234 0.6875-1.5312 1.6992-1.5312 3.0312 0 1.2305 0.41016 2.1953 1.2344 2.8906 0.82031 0.69922 1.9609 1.0469 3.4219 1.0469 1.832 0 3.3672-0.65625 4.6094-1.9688 1.25-1.3125 1.875-2.9531 1.875-4.9219v-1.1094zm14.844-3.6719v17.344h-9.7969v-4.5c-1.3047 1.8438-2.7656 3.1875-4.3906 4.0312-1.625 0.83203-3.6055 1.25-5.9375 1.25-3.1484 0-5.7031-0.91406-7.6719-2.75-1.9609-1.832-2.9375-4.2109-2.9375-7.1406 0-3.5625 1.2227-6.1758 3.6719-7.8438 2.4453-1.6641 6.2969-2.5 11.547-2.5h5.7188v-0.76562c0-1.5312-0.60547-2.6484-1.8125-3.3594-1.2109-0.71875-3.1016-1.0781-5.6719-1.0781-2.0859 0-4.0234 0.21094-5.8125 0.625-1.7812 0.41797-3.4453 1.0391-4.9844 1.8594v-7.4062c2.082-0.5 4.1719-0.87891 6.2656-1.1406 2.0938-0.26953 4.1914-0.40625 6.2969-0.40625 5.4766 0 9.4297 1.0859 11.859 3.25 2.4375 2.1562 3.6562 5.668 3.6562 10.531z"/>
  </symbol>
  <symbol id="h" overflow="visible">
   <path d="m15.281-39.016v8.625h10v6.9531h-10v12.891c0 1.4062 0.27344 2.3594 0.82812 2.8594 0.5625 0.49219 1.6758 0.73438 3.3438 0.73438h4.9844v6.9531h-8.3281c-3.8359 0-6.5547-0.79688-8.1562-2.3906-1.5938-1.6016-2.3906-4.3203-2.3906-8.1562v-12.891h-4.8281v-6.9531h4.8281v-8.625z"/>
  </symbol>
  <symbol id="a" overflow="visible">
   <path d="m25.344-25.938v-16.281h9.7656v42.219h-9.7656v-4.3906c-1.3438 1.793-2.8242 3.1055-4.4375 3.9375-1.6055 0.82031-3.4648 1.2344-5.5781 1.2344-3.7422 0-6.8125-1.4844-9.2188-4.4531-2.4062-2.9766-3.6094-6.8125-3.6094-11.5 0-4.6758 1.2031-8.5039 3.6094-11.484 2.4062-2.9766 5.4766-4.4688 9.2188-4.4688 2.0938 0 3.9453 0.42188 5.5625 1.2656 1.625 0.84375 3.1094 2.1523 4.4531 3.9219zm-6.4062 19.672c2.082 0 3.6719-0.75781 4.7656-2.2812 1.0938-1.5195 1.6406-3.7266 1.6406-6.625 0-2.8828-0.54688-5.0859-1.6406-6.6094-1.0938-1.5195-2.6836-2.2812-4.7656-2.2812-2.0625 0-3.6406 0.76172-4.7344 2.2812-1.0938 1.5234-1.6406 3.7266-1.6406 6.6094 0 2.8984 0.54688 5.1055 1.6406 6.625 1.0938 1.5234 2.6719 2.2812 4.7344 2.2812z"/>
  </symbol>
  <symbol id="g" overflow="visible">
   <path d="m20.844-6.2656c2.0703 0 3.6562-0.75781 4.75-2.2812 1.0938-1.5195 1.6406-3.7266 1.6406-6.625 0-2.8828-0.54688-5.0859-1.6406-6.6094-1.0938-1.5195-2.6797-2.2812-4.75-2.2812-2.0859 0-3.6836 0.76562-4.7969 2.2969-1.1172 1.5234-1.6719 3.7188-1.6719 6.5938s0.55469 5.0781 1.6719 6.6094c1.1133 1.5312 2.7109 2.2969 4.7969 2.2969zm-6.4688-19.672c1.3438-1.7695 2.8281-3.0781 4.4531-3.9219s3.4922-1.2656 5.6094-1.2656c3.75 0 6.8281 1.4922 9.2344 4.4688 2.4062 2.9805 3.6094 6.8086 3.6094 11.484 0 4.6875-1.2031 8.5234-3.6094 11.5-2.4062 2.9688-5.4844 4.4531-9.2344 4.4531-2.1172 0-3.9844-0.41797-5.6094-1.25-1.625-0.84375-3.1094-2.1484-4.4531-3.9219v4.3906h-9.7031v-42.219h9.7031z"/>
  </symbol>
  <symbol id="f" overflow="visible">
   <path d="m0.67188-30.391h9.7188l8.1719 20.625 6.9375-20.625h9.7188l-12.781 33.266c-1.2812 3.3828-2.7812 5.75-4.5 7.0938-1.7109 1.3438-3.9648 2.0156-6.7656 2.0156h-5.6094v-6.375h3.0312c1.6445 0 2.8438-0.26172 3.5938-0.78125 0.75781-0.52344 1.3438-1.4648 1.75-2.8281l0.28125-0.82812z"/>
  </symbol>
  <symbol id="e" overflow="visible">
   <path d="m5.0938-40.5h10.453v32.609h18.344v7.8906h-28.797z"/>
  </symbol>
  <symbol id="l" overflow="visible">
   <path d="m4.3438-11.828v-18.562h9.7656v3.0469c0 1.6484-0.011719 3.7148-0.03125 6.2031-0.023437 2.4805-0.03125 4.1367-0.03125 4.9688 0 2.4492 0.0625 4.2109 0.1875 5.2812 0.13281 1.0742 0.35156 1.8555 0.65625 2.3438 0.39453 0.63672 0.91406 1.125 1.5625 1.4688 0.64453 0.34375 1.3828 0.51562 2.2188 0.51562 2.0195 0 3.6094-0.77344 4.7656-2.3281 1.1562-1.5625 1.7344-3.7227 1.7344-6.4844v-15.016h9.7188v30.391h-9.7188v-4.3906c-1.4609 1.7734-3.0117 3.0781-4.6562 3.9219-1.6367 0.83203-3.4375 1.25-5.4062 1.25-3.5117 0-6.1836-1.0703-8.0156-3.2188-1.8359-2.1562-2.75-5.2852-2.75-9.3906z"/>
  </symbol>
  <symbol id="k" overflow="visible">
   <path d="m4.6719-30.391h9.7031v30.391h-9.7031zm0-11.828h9.7031v7.9219h-9.7031z"/>
  </symbol>
  <symbol id="j" overflow="visible">
   <path d="m28.406-29.438v7.375c-2.0859-0.86328-4.0938-1.5078-6.0312-1.9375-1.9297-0.4375-3.75-0.65625-5.4688-0.65625-1.8438 0-3.2148 0.23047-4.1094 0.6875-0.89844 0.46094-1.3438 1.168-1.3438 2.125 0 0.78125 0.33594 1.3828 1.0156 1.7969 0.67578 0.41797 1.8906 0.72656 3.6406 0.92188l1.7188 0.25c4.9688 0.625 8.3125 1.6641 10.031 3.1094 1.7188 1.4492 2.5781 3.7188 2.5781 6.8125 0 3.2422-1.1953 5.6719-3.5781 7.2969-2.3867 1.625-5.9492 2.4375-10.688 2.4375-2.0117 0-4.0898-0.15625-6.2344-0.46875-2.1367-0.3125-4.3359-0.78516-6.5938-1.4219v-7.375c1.9258 0.9375 3.9062 1.6406 5.9375 2.1094 2.0391 0.46875 4.1094 0.70312 6.2031 0.70312 1.9062 0 3.3359-0.25781 4.2969-0.78125 0.95703-0.53125 1.4375-1.3125 1.4375-2.3438 0-0.86328-0.33594-1.5078-1-1.9375-0.65625-0.42578-1.9688-0.75391-3.9375-0.98438l-1.7188-0.21875c-4.3242-0.53906-7.3555-1.5391-9.0938-3-1.7305-1.4688-2.5938-3.6953-2.5938-6.6875 0-3.2188 1.1016-5.6016 3.3125-7.1562 2.207-1.5625 5.5859-2.3438 10.141-2.3438 1.7891 0 3.6719 0.14062 5.6406 0.42188 1.9766 0.27344 4.125 0.69531 6.4375 1.2656z"/>
  </symbol>
  <symbol id="i" overflow="visible">
   <path d="m5.0938-40.5h17.344c5.1562 0 9.1094 1.1484 11.859 3.4375 2.7578 2.2812 4.1406 5.5391 4.1406 9.7656 0 4.25-1.3828 7.5234-4.1406 9.8125-2.75 2.293-6.7031 3.4375-11.859 3.4375h-6.8906v14.047h-10.453zm10.453 7.5625v11.312h5.7812c2.0195 0 3.582-0.48828 4.6875-1.4688 1.1016-0.98828 1.6562-2.3906 1.6562-4.2031 0-1.8008-0.55469-3.1914-1.6562-4.1719-1.1055-0.97656-2.668-1.4688-4.6875-1.4688z"/>
  </symbol>
 </defs>
 <g>
  <path d="m160.87 102.69c0 13.957 11.301 25.246 25.234 25.246h22.82l-119.98 42.301c-13.789 4.8672-21.012 20-16.199 33.801 4.8984 13.82 20.023 21.055 33.832 16.199l128.17-45.188-150.72 97.863c-13.422 8.7539-17.223 26.723-8.543 40.18 8.7656 13.434 26.734 17.254 40.188 8.5547l119.9-77.922 50.699-90.609c2.7539-4.8789 8.8789-6.6094 13.777-3.8984 3.2656 1.8672 5.1445 5.3008 5.1445 8.832 0 1.6562-0.41016 3.3438-1.2773 4.9102l-28.543 51.199c-9.8672 16.566-25.633 52.465-20.023 85.656 4.6875 27.566 18.777 52.59 40.535 70.234 12.301 10 30.391 8.1016 40.379-4.2109 9.9648-12.301 8.1016-30.379-4.2109-40.367-10.711-8.7461-17.82-21.035-20.012-34.668-2.332-14.801 1.1797-29.535 9.9766-41.656 8.7539-12.078 21.734-20.078 36.477-22.445 30.465-4.8438 59.234 15.977 64.09 46.434 4.9102 30.332-15.977 59.289-46.465 64.133-15.633 2.5234-26.156 17.301-23.801 32.879 2.4648 15.645 17.188 26.301 32.867 23.812 33.957-5.4219 61.867-25.609 78.59-52.844l84.945-112.21 81.285-0.003906v-151.45h-443.9c-13.934-0.023437-25.234 11.277-25.234 25.242z"/>
  <path d="m344.58 540.41c-4.168 0-5.5781-9.2461-5.5781-12.32v-159.99c0-3.0547 2.5117-5.5781 5.5781-5.5781 3.0547 0 5.5547 2.5234 5.5547 5.5781v159.98c0.011719 3.0898-1.6562 12.332-5.5547 12.332z"/>
  <use x="70" y="726.667969" xlink:href="#m"/>
  <use x="110.773437" y="726.667969" xlink:href="#d"/>
  <use x="138.167969" y="726.667969" xlink:href="#c"/>
  <use x="175.847656" y="726.667969" xlink:href="#b"/>
  <use x="213.335938" y="726.667969" xlink:href="#h"/>
  <use x="239.894531" y="726.667969" xlink:href="#c"/>
  <use x="277.574219" y="726.667969" xlink:href="#a"/>
  <use x="336.683594" y="726.667969" xlink:href="#g"/>
  <use x="376.449219" y="726.667969" xlink:href="#f"/>
  <use x="432.007812" y="726.667969" xlink:href="#e"/>
  <use x="467.40625" y="726.667969" xlink:href="#l"/>
  <use x="506.957031" y="726.667969" xlink:href="#k"/>
  <use x="526" y="726.667969" xlink:href="#j"/>
  <use x="578.410156" y="726.667969" xlink:href="#i"/>
  <use x="619.125" y="726.667969" xlink:href="#d"/>
  <use x="646.523437" y="726.667969" xlink:href="#b"/>
  <use x="684.015625" y="726.667969" xlink:href="#a"/>
 </g>
</svg>
