<?xml version="1.0" encoding="UTF-8"?>
<svg width="700pt" height="700pt" fill="white" version="1.1" viewBox="0 0 700 700" xmlns="http://www.w3.org/2000/svg" xmlns:xlink="http://www.w3.org/1999/xlink">
 <defs>
  <symbol id="w" overflow="visible">
   <path d="m8.5625-0.51562c-0.4375 0.23047-0.89844 0.40234-1.375 0.51562-0.48047 0.125-0.98047 0.1875-1.5 0.1875-1.5547 0-2.7812-0.42969-3.6875-1.2969-0.90625-0.875-1.3594-2.0547-1.3594-3.5469 0-1.4883 0.45312-2.6641 1.3594-3.5312 0.90625-0.86328 2.1328-1.2969 3.6875-1.2969 0.51953 0 1.0195 0.058594 1.5 0.17188 0.47656 0.11719 0.9375 0.28906 1.375 0.51562v1.9375c-0.44922-0.3125-0.89062-0.53516-1.3281-0.67188-0.42969-0.14453-0.88281-0.21875-1.3594-0.21875-0.85547 0-1.5273 0.27734-2.0156 0.82812-0.49219 0.55469-0.73438 1.3086-0.73438 2.2656 0 0.96875 0.24219 1.7305 0.73438 2.2812 0.48828 0.54297 1.1602 0.8125 2.0156 0.8125 0.47656 0 0.92969-0.066406 1.3594-0.20312 0.4375-0.14453 0.87891-0.36719 1.3281-0.67188z"/>
  </symbol>
  <symbol id="b" overflow="visible">
   <path d="m6.2656-5.0938c-0.19922-0.082031-0.39844-0.14453-0.59375-0.1875-0.1875-0.050781-0.38281-0.078125-0.57812-0.078125-0.57422 0-1.0156 0.1875-1.3281 0.5625-0.30469 0.36719-0.45312 0.89062-0.45312 1.5781v3.2188h-2.2344v-6.9844h2.2344v1.1406c0.28125-0.45703 0.60938-0.78906 0.98438-1 0.375-0.20703 0.82031-0.3125 1.3438-0.3125 0.070313 0 0.14844 0.007812 0.23438 0.015625 0.09375 0 0.22266 0.011719 0.39062 0.03125z"/>
  </symbol>
  <symbol id="a" overflow="visible">
   <path d="m8.0469-3.5156v0.64062h-5.2188c0.050781 0.52344 0.23828 0.91797 0.5625 1.1875 0.32031 0.26172 0.77344 0.39062 1.3594 0.39062 0.46875 0 0.94531-0.066406 1.4375-0.20312 0.5-0.14453 1.0078-0.35938 1.5312-0.64062v1.7188c-0.53125 0.19922-1.0625 0.35156-1.5938 0.45312-0.52344 0.10156-1.0469 0.15625-1.5781 0.15625-1.2617 0-2.2461-0.32031-2.9531-0.96875-0.69922-0.64453-1.0469-1.5469-1.0469-2.7031 0-1.1445 0.34375-2.0391 1.0312-2.6875 0.6875-0.65625 1.6328-0.98438 2.8438-0.98438 1.1016 0 1.9844 0.33594 2.6406 1 0.65625 0.65625 0.98438 1.5391 0.98438 2.6406zm-2.2969-0.73438c0-0.42578-0.125-0.76953-0.375-1.0312-0.24219-0.25781-0.5625-0.39062-0.96875-0.39062-0.42969 0-0.77734 0.125-1.0469 0.375-0.27344 0.24219-0.4375 0.58984-0.5 1.0469z"/>
  </symbol>
  <symbol id="f" overflow="visible">
   <path d="m4.2031-3.1406c-0.46875 0-0.82422 0.078125-1.0625 0.23438-0.23047 0.15625-0.34375 0.39062-0.34375 0.70312 0 0.28125 0.09375 0.50781 0.28125 0.67188 0.19531 0.15625 0.46094 0.23438 0.79688 0.23438 0.41406 0 0.76562-0.14844 1.0469-0.45312 0.28906-0.30078 0.4375-0.67969 0.4375-1.1406v-0.25zm3.4219-0.84375v3.9844h-2.2656v-1.0312c-0.29297 0.41797-0.625 0.72656-1 0.92188-0.375 0.19531-0.83594 0.29688-1.375 0.29688-0.71875 0-1.3086-0.20703-1.7656-0.625-0.44922-0.42578-0.67188-0.97656-0.67188-1.6562 0-0.82031 0.28125-1.4219 0.84375-1.7969 0.5625-0.38281 1.4453-0.57812 2.6562-0.57812h1.3125v-0.1875c0-0.35156-0.14062-0.60938-0.42188-0.76562-0.27344-0.16406-0.70312-0.25-1.2969-0.25-0.48047 0-0.92969 0.046875-1.3438 0.14062-0.40625 0.09375-0.78906 0.24219-1.1406 0.4375v-1.7031c0.47656-0.125 0.95703-0.21094 1.4375-0.26562 0.48828-0.0625 0.97266-0.09375 1.4531-0.09375 1.2578 0 2.1719 0.25 2.7344 0.75 0.5625 0.49219 0.84375 1.2969 0.84375 2.4219z"/>
  </symbol>
  <symbol id="d" overflow="visible">
   <path d="m3.5156-8.9688v1.9844h2.2969v1.5938h-2.2969v2.9688c0 0.32422 0.0625 0.54297 0.1875 0.65625 0.13281 0.11719 0.39062 0.17188 0.76562 0.17188h1.1562v1.5938h-1.9219c-0.875 0-1.5-0.17969-1.875-0.54688-0.36719-0.375-0.54688-1-0.54688-1.875v-2.9688h-1.1094v-1.5938h1.1094v-1.9844z"/>
  </symbol>
  <symbol id="l" overflow="visible">
   <path d="m5.8281-5.9688v-3.7344h2.25v9.7031h-2.25v-1.0156c-0.3125 0.41797-0.65625 0.72656-1.0312 0.92188-0.36719 0.1875-0.78906 0.28125-1.2656 0.28125-0.86719 0-1.5742-0.34375-2.125-1.0312-0.55469-0.6875-0.82812-1.5664-0.82812-2.6406 0-1.082 0.27344-1.9609 0.82812-2.6406 0.55078-0.6875 1.2578-1.0312 2.125-1.0312 0.47656 0 0.89844 0.10156 1.2656 0.29688 0.375 0.1875 0.71875 0.48438 1.0312 0.89062zm-1.4688 4.5312c0.47656 0 0.84375-0.17188 1.0938-0.51562 0.25-0.35156 0.375-0.86328 0.375-1.5312 0-0.66406-0.125-1.1719-0.375-1.5156-0.25-0.35156-0.61719-0.53125-1.0938-0.53125-0.48047 0-0.84375 0.17969-1.0938 0.53125-0.25 0.34375-0.375 0.85156-0.375 1.5156 0 0.66797 0.125 1.1797 0.375 1.5312 0.25 0.34375 0.61328 0.51562 1.0938 0.51562z"/>
  </symbol>
  <symbol id="k" overflow="visible">
   <path d="m4.7969-1.4375c0.47656 0 0.84375-0.17188 1.0938-0.51562 0.25-0.35156 0.375-0.86328 0.375-1.5312 0-0.66406-0.125-1.1719-0.375-1.5156-0.25-0.35156-0.61719-0.53125-1.0938-0.53125-0.48047 0-0.85156 0.17969-1.1094 0.53125-0.25 0.34375-0.375 0.85156-0.375 1.5156 0 0.65625 0.125 1.1641 0.375 1.5156 0.25781 0.35547 0.62891 0.53125 1.1094 0.53125zm-1.4844-4.5312c0.30078-0.40625 0.64062-0.70312 1.0156-0.89062 0.375-0.19531 0.80469-0.29688 1.2969-0.29688 0.86328 0 1.5703 0.34375 2.125 1.0312 0.55078 0.67969 0.82812 1.5586 0.82812 2.6406 0 1.0742-0.27734 1.9531-0.82812 2.6406-0.55469 0.6875-1.2617 1.0312-2.125 1.0312-0.49219 0-0.92188-0.10156-1.2969-0.29688-0.375-0.19531-0.71484-0.5-1.0156-0.90625v1.0156h-2.2344v-9.7031h2.2344z"/>
  </symbol>
  <symbol id="j" overflow="visible">
   <path d="m0.15625-6.9844h2.2344l1.875 4.7344 1.5938-4.7344h2.2344l-2.9375 7.6406c-0.29297 0.78125-0.63672 1.3281-1.0312 1.6406-0.39844 0.3125-0.91406 0.46875-1.5469 0.46875h-1.2969v-1.4688h0.70312c0.375 0 0.64453-0.0625 0.8125-0.1875 0.17578-0.11719 0.3125-0.32812 0.40625-0.64062l0.0625-0.20312z"/>
  </symbol>
  <symbol id="i" overflow="visible">
   <path d="m1.0781-9.7031h2.2344v5.2812l2.5625-2.5625h2.5938l-3.4062 3.2031 3.6875 3.7812h-2.7188l-2.7188-2.9219v2.9219h-2.2344z"/>
  </symbol>
  <symbol id="h" overflow="visible">
   <path d="m7.5469-5.8281c0.28125-0.4375 0.61328-0.76562 1-0.98438 0.39453-0.22656 0.82812-0.34375 1.2969-0.34375 0.80078 0 1.4102 0.25 1.8281 0.75 0.42578 0.49219 0.64062 1.2109 0.64062 2.1562v4.25h-2.25v-3.6406-0.17188c0.007812-0.0625 0.015625-0.14453 0.015625-0.25 0-0.5-0.074219-0.85938-0.21875-1.0781-0.14844-0.21875-0.38281-0.32812-0.70312-0.32812-0.42969 0-0.76172 0.17969-1 0.53125-0.23047 0.34375-0.34375 0.84375-0.34375 1.5v3.4375h-2.25v-3.6406c0-0.78125-0.070312-1.2812-0.20312-1.5-0.13672-0.21875-0.37109-0.32812-0.70312-0.32812-0.4375 0-0.77344 0.17969-1 0.53125-0.23047 0.34375-0.34375 0.84375-0.34375 1.5v3.4375h-2.25v-6.9844h2.25v1.0156c0.26953-0.39453 0.58203-0.69141 0.9375-0.89062 0.35156-0.19531 0.74219-0.29688 1.1719-0.29688 0.48828 0 0.91406 0.12109 1.2812 0.35938 0.375 0.23047 0.65625 0.55469 0.84375 0.96875z"/>
  </symbol>
  <symbol id="c" overflow="visible">
   <path d="m4.4062-5.5625c-0.5 0-0.88281 0.17969-1.1406 0.53125-0.26172 0.35547-0.39062 0.87109-0.39062 1.5469 0 0.66797 0.12891 1.1797 0.39062 1.5312 0.25781 0.35547 0.64062 0.53125 1.1406 0.53125 0.47656 0 0.84766-0.17578 1.1094-0.53125 0.25781-0.35156 0.39062-0.86328 0.39062-1.5312 0-0.67578-0.13281-1.1914-0.39062-1.5469-0.26172-0.35156-0.63281-0.53125-1.1094-0.53125zm0-1.5938c1.1953 0 2.1328 0.32422 2.8125 0.96875 0.67578 0.64844 1.0156 1.5469 1.0156 2.7031 0 1.1484-0.33984 2.0469-1.0156 2.7031-0.67969 0.64844-1.6172 0.96875-2.8125 0.96875-1.2109 0-2.1562-0.32031-2.8438-0.96875-0.67969-0.65625-1.0156-1.5547-1.0156-2.7031 0-1.1562 0.33594-2.0547 1.0156-2.7031 0.6875-0.64453 1.6328-0.96875 2.8438-0.96875z"/>
  </symbol>
  <symbol id="v" overflow="visible">
   <path d="m0.1875-6.9844h2.2344l1.75 4.8281 1.7344-4.8281h2.2344l-2.75 6.9844h-2.4531z"/>
  </symbol>
  <symbol id="u" overflow="visible">
   <path d="m1.0781-6.9844h2.2344v6.9844h-2.2344zm0-2.7188h2.2344v1.8125h-2.2344z"/>
  </symbol>
  <symbol id="g" overflow="visible">
   <path d="m6.7188-6.7656v1.8125c-0.30469-0.20703-0.60938-0.35938-0.92188-0.45312-0.30469-0.10156-0.61719-0.15625-0.9375-0.15625-0.625 0-1.1172 0.18359-1.4688 0.54688-0.34375 0.36719-0.51562 0.875-0.51562 1.5312 0 0.64844 0.17188 1.1523 0.51562 1.5156 0.35156 0.36719 0.84375 0.54688 1.4688 0.54688 0.34375 0 0.67188-0.050781 0.98438-0.15625 0.32031-0.10156 0.61328-0.25391 0.875-0.45312v1.8281c-0.34375 0.125-0.69922 0.21875-1.0625 0.28125-0.35547 0.070313-0.71484 0.10938-1.0781 0.10938-1.2617 0-2.25-0.32031-2.9688-0.96875-0.71094-0.65625-1.0625-1.5547-1.0625-2.7031 0-1.1562 0.35156-2.0547 1.0625-2.7031 0.71875-0.64453 1.707-0.96875 2.9688-0.96875 0.36328 0 0.72266 0.03125 1.0781 0.09375 0.35156 0.0625 0.70703 0.16406 1.0625 0.29688z"/>
  </symbol>
  <symbol id="t" overflow="visible">
   <path d="m1.5-1.6562h2.125v-6.0312l-2.1875 0.45312v-1.6406l2.1719-0.4375h2.2812v7.6562h2.125v1.6562h-6.5156z"/>
  </symbol>
  <symbol id="e" overflow="visible">
   <path d="m5.875-4.6719c0-1.1641-0.10938-1.9844-0.32812-2.4531-0.21875-0.47656-0.58594-0.71875-1.0938-0.71875-0.52344 0-0.89062 0.24219-1.1094 0.71875-0.21875 0.46875-0.32812 1.2891-0.32812 2.4531 0 1.1797 0.10938 2.0117 0.32812 2.5 0.21875 0.48047 0.58594 0.71875 1.1094 0.71875 0.50781 0 0.875-0.23828 1.0938-0.71875 0.21875-0.48828 0.32812-1.3203 0.32812-2.5zm2.4062 0.015625c0 1.5547-0.33594 2.75-1 3.5938-0.66797 0.83594-1.6094 1.25-2.8281 1.25-1.2305 0-2.1797-0.41406-2.8438-1.25-0.66797-0.84375-1-2.0391-1-3.5938 0-1.5391 0.33203-2.7266 1-3.5625 0.66406-0.84375 1.6133-1.2656 2.8438-1.2656 1.2188 0 2.1602 0.42188 2.8281 1.2656 0.66406 0.83594 1 2.0234 1 3.5625z"/>
  </symbol>
  <symbol id="s" overflow="visible">
   <path d="m5.6719-9.7031v1.4531h-1.2344c-0.3125 0-0.53125 0.058594-0.65625 0.17188-0.125 0.11719-0.1875 0.32031-0.1875 0.60938v0.48438h1.9062v1.5938h-1.9062v5.3906h-2.2344v-5.3906h-1.1094v-1.5938h1.1094v-0.48438c0-0.76953 0.20703-1.332 0.625-1.6875 0.42578-0.36328 1.0859-0.54688 1.9844-0.54688z"/>
  </symbol>
  <symbol id="r" overflow="visible">
   <path d="m8.0938-4.25v4.25h-2.2344v-3.25c0-0.60156-0.015625-1.0195-0.046875-1.25-0.03125-0.22656-0.078125-0.39844-0.14062-0.51562-0.085937-0.14453-0.20312-0.25391-0.35938-0.32812-0.14844-0.082031-0.3125-0.125-0.5-0.125-0.46875 0-0.83984 0.18359-1.1094 0.54688-0.26172 0.35547-0.39062 0.85156-0.39062 1.4844v3.4375h-2.2344v-9.7031h2.2344v3.7344c0.33203-0.40625 0.6875-0.70312 1.0625-0.89062 0.38281-0.19531 0.80469-0.29688 1.2656-0.29688 0.80078 0 1.4102 0.25 1.8281 0.75 0.41406 0.49219 0.625 1.2109 0.625 2.1562z"/>
  </symbol>
  <symbol id="q" overflow="visible">
   <path d="m1.1719-9.3125h2.6875l3.3906 6.3906v-6.3906h2.2812v9.3125h-2.6875l-3.3906-6.3906v6.3906h-2.2812z"/>
  </symbol>
  <symbol id="p" overflow="visible">
   <path d="m1-2.7188v-4.2656h2.25v0.6875c0 0.38672-0.007812 0.86719-0.015625 1.4375v1.1406c0 0.5625 0.007813 0.96875 0.03125 1.2188 0.03125 0.24219 0.082031 0.41797 0.15625 0.53125 0.09375 0.14844 0.21094 0.26172 0.35938 0.34375 0.14453 0.074219 0.31641 0.10938 0.51562 0.10938 0.46875 0 0.83203-0.17578 1.0938-0.53125 0.26953-0.35156 0.40625-0.84766 0.40625-1.4844v-3.4531h2.2344v6.9844h-2.2344v-1.0156c-0.34375 0.40625-0.70312 0.71094-1.0781 0.90625-0.375 0.19531-0.79297 0.29688-1.25 0.29688-0.80469 0-1.418-0.24219-1.8438-0.73438-0.41797-0.5-0.625-1.2227-0.625-2.1719z"/>
  </symbol>
  <symbol id="o" overflow="visible">
   <path d="m8.0938-4.25v4.25h-2.2344v-3.25c0-0.60156-0.015625-1.0195-0.046875-1.25-0.03125-0.22656-0.078125-0.39844-0.14062-0.51562-0.085937-0.14453-0.20312-0.25391-0.35938-0.32812-0.14844-0.082031-0.3125-0.125-0.5-0.125-0.46875 0-0.83984 0.18359-1.1094 0.54688-0.26172 0.35547-0.39062 0.85156-0.39062 1.4844v3.4375h-2.2344v-6.9844h2.2344v1.0156c0.33203-0.40625 0.6875-0.70312 1.0625-0.89062 0.38281-0.19531 0.80469-0.29688 1.2656-0.29688 0.80078 0 1.4102 0.25 1.8281 0.75 0.41406 0.49219 0.625 1.2109 0.625 2.1562z"/>
  </symbol>
  <symbol id="n" overflow="visible">
   <path d="m1.1719-9.3125h3.9844c1.1875 0 2.0977 0.26562 2.7344 0.79688 0.63281 0.52344 0.95312 1.2656 0.95312 2.2344 0 0.98047-0.32031 1.7344-0.95312 2.2656-0.63672 0.52344-1.5469 0.78125-2.7344 0.78125h-1.5781v3.2344h-2.4062zm2.4062 1.7344v2.6094h1.3281c0.46875 0 0.82812-0.11328 1.0781-0.34375 0.25-0.22656 0.375-0.55078 0.375-0.96875 0-0.41406-0.125-0.73438-0.375-0.95312-0.25-0.22656-0.60938-0.34375-1.0781-0.34375z"/>
  </symbol>
  <symbol id="m" overflow="visible">
   <path d="m1.0781-6.9844h2.2344v6.8594c0 0.9375-0.23047 1.6484-0.6875 2.1406-0.44922 0.5-1.0938 0.75-1.9375 0.75h-1.1094v-1.4688h0.39062c0.41406 0 0.70312-0.10156 0.85938-0.29688 0.16406-0.1875 0.25-0.5625 0.25-1.125zm0-2.7188h2.2344v1.8125h-2.2344z"/>
  </symbol>
 </defs>
 <g>
  <path d="m407.54 61.371c-23.016 12.785 12.785 40.914 25.57 20.457 7.6719-10.227-17.898-23.016-25.57-20.457z"/>
  <path d="m318.04 94.613c7.6719 33.242 12.785 46.027 38.355 46.027-28.129-48.586-7.6719-89.496 25.57-99.727 17.898-5.1133 30.684-25.57 63.926 0 7.6719-40.914-28.129-48.586-66.484-33.242-5.1133 2.5586-69.043 5.1133-61.371 86.941z"/>
  <path d="m440.78 115.07c25.57-17.898 7.6719-35.801 0-35.801-30.684 46.027-53.699-28.129-61.371 2.5586 2.5586 30.684 33.242 53.699 61.371 33.242z"/>
  <path d="m402.42 35.801c-12.785 2.5586-23.016 28.129-7.6719 28.129 7.6719-28.129 66.484 15.344 63.926 30.684 0 5.1133 0 7.6719-2.5586 10.227 7.6719 10.227 28.129-5.1133 20.457-23.016-12.785-35.801-53.699-56.254-74.156-46.027z"/>
  <path d="m456.12 112.51h-2.5586c-58.812 48.586-89.496-28.129-74.156-43.469 7.6719-10.227 2.5586-17.898 7.6719-25.57-28.129 10.227-35.801 30.684-38.355 51.141-7.6719 81.828 132.97 66.484 107.4 17.898z"/>
  <path d="m323.15 230.14c12.785-20.457-48.586-38.355-38.355-99.727-53.699 33.242 12.785 120.18 38.355 99.727z"/>
  <path d="m456.12 40.914c17.898 10.227 43.469 46.027 15.344 66.484 0 51.141-69.043 74.156-104.84 33.242-23.016 15.344 53.699 81.828 109.95 28.129 56.254-53.699 25.57-150.87-20.457-130.41-2.5586 0-2.5586 2.5586 0 2.5586z"/>
  <path d="m287.35 112.51c2.5586 58.812 17.898 86.941 71.598 102.28 12.785 2.5586 76.711 20.457 94.613-23.016-10.227 5.1133-63.926 15.344-97.168-38.355-40.914-7.6719-51.141-53.699-43.469-81.828-30.684 0-25.57 15.344-25.57 40.914z"/>
  <path d="m466.35 7.6719c-5.1133 5.1133-15.344 7.6719-10.227 23.016 61.371-12.785 81.828 115.07 10.227 153.43-2.5586 2.5586-2.5586 2.5586-5.1133 2.5586-2.5586 15.344 92.055 20.457 94.613-71.598 0-46.027-40.914-115.07-89.496-107.4z"/>
  <path d="m338.49 214.79c-10.227-2.5586-15.344 28.129 12.785 46.027 48.586 33.242 125.3 0 153.43-40.914 2.5586-5.1133 5.1133-12.785 2.5586-20.457l-48.586 2.5586c-17.898 23.016-46.027 28.129-69.043 25.57-30.684 0-35.801-10.227-51.141-12.785z"/>
  <path d="m172.28 350.32c-2.5586 2.5586-2.5586 2.5586-7.6719 5.1133 7.6719 12.785 40.914 25.57 51.141 25.57-5.1133 2.5586-5.1133 7.6719-10.227 10.227 10.227 7.6719 46.027 7.6719 53.699 7.6719-2.5586 5.1133 0 5.1133-2.5586 10.227 5.1133 0 10.227-2.5586 25.57-5.1133 23.016-7.6719 51.141-30.684 48.586-35.801 0-2.5586-5.1133-2.5586-7.6719-5.1133-12.785 15.344-30.684 23.016-48.586 28.129 7.6719-5.1133 35.801-15.344 40.914-30.684-2.5586-2.5586-12.785-2.5586-23.016-5.1133-20.457 10.227-33.242 23.016-61.371 25.57 20.457-7.6719 35.801-10.227 53.699-28.129-15.344-10.227-46.027-17.898-61.371-10.227-12.785 0-23.016 2.5586-33.242 2.5586 25.57-5.1133 38.355-7.6719 38.355-12.785 2.5586-2.5586-12.785-12.785-33.242-25.57-10.227 2.5586-20.457 2.5586-33.242 2.5586 7.6719 0 23.016-2.5586 25.57-7.6719-10.227-5.1133-28.129-33.242-38.355-38.355 10.227 2.5586 30.684 33.242 40.914 33.242-2.5586-7.6719-5.1133-20.457-12.785-35.801 7.6719 12.785 12.785 25.57 17.898 38.355 5.1133 5.1133 12.785 10.227 17.898 12.785 5.1133-15.344 2.5586-28.129-5.1133-38.355 23.016 23.016-10.227 35.801 35.801 56.254 5.1133 2.5586 10.227 7.6719 15.344 5.1133 5.1133-15.344 0-40.914-10.227-53.699 15.344 5.1133 15.344 46.027 17.898 56.254 12.785 7.6719 28.129 15.344 35.801 10.227-2.5586-12.785-15.344-35.801-23.016-51.141 10.227 17.898 23.016 33.242 28.129 53.699 7.6719 0 15.344 5.1133 23.016 5.1133 5.1133-20.457-12.785-46.027-23.016-58.812 0 7.6719-2.5586 5.1133-5.1133 10.227-2.5586-17.898-23.016-35.801-35.801-46.027-2.5586 2.5586 0 7.6719-2.5586 10.227-7.6719-10.227-20.457-15.344-30.684-20.457 2.5586 5.1133 0 7.6719 0 10.227-7.6719-10.227-17.898-12.785-33.242-15.344-2.5586 7.6719-5.1133 7.6719-5.1133 12.785-5.1133-7.6719-23.016-12.785-33.242-15.344 0 5.1133-2.5586 5.1133 0 10.227-7.6719-5.1133-15.344-5.1133-28.129 0 2.5586 15.344 7.6719 23.016 10.227 25.57 0 2.5586-5.1133 0-10.227 2.5586 5.1133 25.57 23.016 25.57 7.6719 33.242 7.6719 15.344 5.1133 20.457 30.684 35.801z"/>
  <path d="m369.18 278.72c-30.684 97.168 23.016 219.91 84.383 281.28-76.711-38.355-130.41-194.34-99.727-286.39l15.344 5.1133z"/>
  <path d="m548.17 381c2.5586 0 2.5586 2.5586 7.6719 0-5.1133 15.344-30.684 38.355-43.469 40.914 7.6719 0 7.6719 5.1133 12.785 5.1133-7.6719 12.785-40.914 23.016-48.586 23.016 2.5586 5.1133 2.5586 5.1133 5.1133 7.6719-5.1133 2.5586-10.227 2.5586-25.57 2.5586-23.016 0-58.812-15.344-58.812-20.457 0-2.5586 5.1133-5.1133 7.6719-5.1133 15.344 7.6719 35.801 12.785 56.254 12.785-10.227-2.5586-38.355-5.1133-48.586-17.898 0-2.5586 10.227-5.1133 20.457-12.785 23.016 5.1133 38.355 15.344 66.484 7.6719-23.016 0-38.355 2.5586-58.812-10.227 10.227-15.344 35.801-30.684 53.699-28.129h2.5586c10.227-2.5586 20.457-5.1133 30.684-5.1133-25.57 0-38.355 2.5586-40.914-2.5586-2.5586-2.5586 10.227-15.344 25.57-33.242 12.785 0 20.457-2.5586 30.684-7.6719-5.1133 2.5586-20.457 5.1133-25.57 0 10.227-7.6719 20.457-40.914 28.129-48.586-10.227 5.1133-20.457 40.914-30.684 46.027 0-10.227 0-23.016 2.5586-38.355-2.5586 12.785-5.1133 25.57-7.6719 40.914-2.5586 5.1133-7.6719 12.785-12.785 17.898-7.6719-15.344-10.227-28.129-5.1133-38.355-17.898 28.129 17.898 30.684-20.457 63.926-2.5586 2.5586-7.6719 7.6719-12.785 7.6719-10.227-12.785-10.227-38.355-5.1133-53.699-12.785 7.6719-2.5586 48.586 0 58.812-12.785 10.227-23.016 20.457-33.242 20.457 0-15.344 5.1133-38.355 7.6719-56.254-5.1133 20.457-12.785 38.355-12.785 58.812-7.6719 2.5586-12.785 10.227-20.457 12.785-7.6719-17.898 0-48.586 5.1133-63.926l7.6719 7.6719c0-15.344 12.785-40.914 25.57-53.699 2.5586 2.5586 0 5.1133 2.5586 7.6719 5.1133-10.227 15.344-17.898 23.016-25.57 0 5.1133 2.5586 7.6719 5.1133 7.6719 5.1133-10.227 15.344-15.344 28.129-23.016 2.5586 7.6719 5.1133 7.6719 7.6719 10.227 2.5586-7.6719 17.898-17.898 25.57-20.457 2.5586 2.5586 5.1133 2.5586 5.1133 7.6719 7.6719-5.1133 12.785-10.227 25.57-7.6719 2.5586 12.785 0 23.016-2.5586 28.129 2.5586 2.5586 7.6719-2.5586 10.227 0 2.5586 23.016-15.344 28.129 2.5586 33.242-2.5586 17.898 0 20.457-17.898 43.469z"/>
  <use x="133.925781" y="598.355469" xlink:href="#w"/>
  <use x="143.308594" y="598.355469" xlink:href="#b"/>
  <use x="149.617188" y="598.355469" xlink:href="#a"/>
  <use x="158.285156" y="598.355469" xlink:href="#f"/>
  <use x="166.914062" y="598.355469" xlink:href="#d"/>
  <use x="173.027344" y="598.355469" xlink:href="#a"/>
  <use x="181.699219" y="598.355469" xlink:href="#l"/>
  <use x="195.300781" y="598.355469" xlink:href="#k"/>
  <use x="204.453125" y="598.355469" xlink:href="#j"/>
  <use x="217.238281" y="598.355469" xlink:href="#i"/>
  <use x="225.742188" y="598.355469" xlink:href="#f"/>
  <use x="234.367187" y="598.355469" xlink:href="#b"/>
  <use x="240.671875" y="598.355469" xlink:href="#a"/>
  <use x="249.34375" y="598.355469" xlink:href="#a"/>
  <use x="258.015625" y="598.355469" xlink:href="#h"/>
  <use x="271.339844" y="598.355469" xlink:href="#c"/>
  <use x="280.121094" y="598.355469" xlink:href="#v"/>
  <use x="288.457031" y="598.355469" xlink:href="#u"/>
  <use x="292.839844" y="598.355469" xlink:href="#g"/>
  <use x="300.417969" y="598.355469" xlink:href="#t"/>
  <use x="309.3125" y="598.355469" xlink:href="#e"/>
  <use x="318.210938" y="598.355469" xlink:href="#e"/>
  <use x="327.105469" y="598.355469" xlink:href="#e"/>
  <use x="133.925781" y="611.140625" xlink:href="#s"/>
  <use x="139.488281" y="611.140625" xlink:href="#b"/>
  <use x="145.792969" y="611.140625" xlink:href="#c"/>
  <use x="154.578125" y="611.140625" xlink:href="#h"/>
  <use x="172.351562" y="611.140625" xlink:href="#d"/>
  <use x="178.464844" y="611.140625" xlink:href="#r"/>
  <use x="187.566406" y="611.140625" xlink:href="#a"/>
  <use x="200.6875" y="611.140625" xlink:href="#q"/>
  <use x="211.386719" y="611.140625" xlink:href="#c"/>
  <use x="220.171875" y="611.140625" xlink:href="#p"/>
  <use x="229.273438" y="611.140625" xlink:href="#o"/>
  <use x="242.828125" y="611.140625" xlink:href="#n"/>
  <use x="252.199219" y="611.140625" xlink:href="#b"/>
  <use x="258.503906" y="611.140625" xlink:href="#c"/>
  <use x="267.285156" y="611.140625" xlink:href="#m"/>
  <use x="271.667969" y="611.140625" xlink:href="#a"/>
  <use x="280.339844" y="611.140625" xlink:href="#g"/>
  <use x="287.917969" y="611.140625" xlink:href="#d"/>
 </g>
</svg>
